# xmcd CD database file
#
# Track frame offsets:
#	183
#	10178
#	83850
#	124945
#	169403
#	201958
#	217405
#	263690
#
# Disc length: 3919 seconds
#
# Revision: 0
# Processed by: cddbd v1.5.1PL0 Copyright (c) Steve Scherf et al.
# Submitted via: CDex 1.50beta10
#
DISCID=750f4d08
DTITLE=Johnny Winter - Can't Loose The Blues
DYEAR=1991
DGENRE=Blues
TTITLE0=Got To Find My Baby
TTITLE1=Slow Blues
TTITLE2=Pretty Baby
TTITLE3=Illustrated Man
TTITLE4=Blue Mood
TTITLE5=Sugaree
TTITLE6=Instrumental
TTITLE7=Mojo Boogie
EXTD=YEAR: 1991
EXTT0=
EXTT1=
EXTT2=
EXTT3=
EXTT4=
EXTT5=
EXTT6=
EXTT7=
PLAYORDER=
